<svg width="647" height="362" viewBox="0 0 647 362" fill="none" xmlns="http://www.w3.org/2000/svg">
<path d="M234.37 19.2572L234.373 19.2575L234.375 19.2578L234.427 19.2643L234.488 19.2704L234.985 14.2952C234.488 19.2704 234.488 19.2704 234.489 19.2705L234.491 19.2708L234.502 19.2718L234.542 19.2758L234.701 19.2917L235.322 19.3535C235.866 19.4076 236.665 19.487 237.686 19.5879C239.727 19.7899 242.653 20.0783 246.195 20.4244C253.278 21.1166 262.826 22.0397 272.684 22.9629C292.202 24.7908 313.474 26.6743 318.703 26.6743C323.931 26.6744 345.203 24.7909 364.721 22.963C374.579 22.0398 384.128 21.1167 391.211 20.4245C394.753 20.0783 397.679 19.7899 399.72 19.5879C400.74 19.487 401.539 19.4076 402.083 19.3535L402.35 19.3269C402.387 19.3318 402.426 19.3371 402.466 19.3426C402.903 19.4024 403.561 19.4975 404.414 19.635C406.122 19.9102 408.607 20.3544 411.66 21.0239C417.777 22.3652 426.12 24.5991 435.037 28.1621C453.03 35.3518 472.503 47.6021 481.57 67.9814C483.697 72.7619 486.747 79.2166 490.396 86.9393C503.942 115.608 525.744 161.749 539.233 204.579C547.823 231.855 552.745 256.94 550.431 274.924C549.286 283.823 546.434 290.462 541.9 294.875C537.44 299.216 530.738 302 520.61 302H520.089H519.565H519.036H518.505H517.97H517.432H516.89H516.345H515.796H515.244H514.689H514.13H513.568H513.003H512.434H511.863H511.288H510.709H510.128H509.543H508.955H508.364H507.769H507.172H506.571H505.967H505.36H504.75H504.137H503.521H502.901H502.279H501.654H501.025H500.394H499.759H499.122H498.482H497.838H497.192H496.543H495.891H495.236H494.578H493.917H493.254H492.587H491.918H491.246H490.571H489.894H489.213H488.53H487.844H487.156H486.465H485.771H485.074H484.375H483.673H482.968H482.261H481.551H480.839H480.124H479.406H478.686H477.963H477.238H476.51H475.78H475.048H474.312H473.575H472.835H472.093H471.348H470.601H469.851H469.099H468.345H467.588H466.829H466.068H465.304H464.538H463.77H463H462.227H461.453H460.676H459.896H459.115H458.331H457.546H456.758H455.968H455.176H454.382H453.586H452.787H451.987H451.185H450.38H449.574H448.765H447.955H447.143H446.328H445.512H444.694H443.874H443.052H442.228H441.403H440.575H439.746H438.915H438.082H437.247H436.41H435.572H434.732H433.89H433.047H432.201H431.355H430.506H429.656H428.804H427.95H427.095H426.238H425.38H424.52H423.659H422.796H421.931H421.065H420.197H419.328H418.458H417.586H416.712H415.837H414.961H414.083H413.204H412.324H411.442H410.559H409.674H408.788H407.901H407.013H406.123H405.232H404.34H403.446H402.552H401.656H400.759H399.86H398.961H398.06H397.159H396.256H395.352H394.447H393.541H392.634H391.725H390.816H389.906H388.995H388.082H387.169H386.255H385.34H384.424H383.507H382.589H381.67H380.751H379.83H378.909H377.986H377.063H376.14H375.215H374.29H373.364H372.437H371.509H370.581H369.652H368.722H367.792H366.86H365.929H364.996H364.063H363.13H362.196H361.261H360.326H359.39H358.454H357.517H356.579H355.641H354.703H353.764H352.825H351.885H350.945H350.005H349.064H348.122H347.181H346.239H345.297H344.354H343.411H342.468H341.524H340.58H339.636H338.692H337.748H336.803H335.858H334.913H333.968H333.023H332.077H331.132H330.186H329.24H328.294H327.348H326.403H325.457H324.511H323.565H322.619H321.673H320.727H319.781H318.835H317.889H316.944H315.998H315.053H314.108H313.163H312.218H311.273H310.328H309.384H308.44H307.496H306.553H305.609H304.666H303.723H302.781H301.839H300.897H299.956H299.015H298.074H297.134H296.194H295.254H294.315H293.377H292.439H291.501H290.564H289.628H288.692H287.756H286.821H285.887H284.953H284.02H283.087H282.155H281.224H280.293H279.363H278.434H277.505H276.578H275.65H274.724H273.798H272.873H271.949H271.026H270.104H269.182H268.261H267.341H266.422H265.504H264.586H263.67H262.755H261.84H260.927H260.014H259.102H258.192H257.282H256.373H255.466H254.559H253.654H252.75H251.846H250.944H250.043H249.144H248.245H247.347H246.451H245.556H244.662H243.769H242.878H241.988H241.099H240.211H239.325H238.44H237.556H236.674H235.793H234.913H234.035H233.158H232.283H231.408H230.536H229.665H228.795H227.927H227.06H226.195H225.332H224.47H223.609H222.75H221.893H221.037H220.183H219.331H218.48H217.63H216.783H215.937H215.093H214.251H213.41H212.571H211.734H210.898H210.065H209.233H208.403H207.575H206.748H205.924H205.101H204.28H203.461H202.645H201.83H201.017H200.205H199.396H198.589H197.784H196.981H196.18H195.381H194.584H193.789H192.996H192.205H191.417H190.63H189.846H189.064H188.284H187.506H186.73H185.957H185.186H184.417H183.65H182.886H182.124H181.364H180.606H179.851H179.098H178.348H177.6H176.854H176.111H175.37H174.631H173.895H173.162H172.431H171.702H170.976H170.252H169.531H168.813H168.097H167.384H166.673H165.965H165.259H164.556H163.856H163.158H162.463H161.771H161.081H160.395H159.71H159.029H158.35H157.675H157.002H156.331H155.664H154.999H154.337H153.679H153.023H152.369H151.719H151.072H150.427H149.786H149.147H148.512H147.879H147.25H146.623H146H145.38H144.762H144.148H143.537H142.929H142.324H141.722H141.123H140.527H139.935H139.346H138.76H138.177H137.598H137.021H136.448H135.878H135.312H134.749H134.189H133.632H133.079H132.529H131.983H131.44H130.9H130.364H129.831H129.302H128.776H128.254H127.735H127.219H126.707H126.199H125.694H125.193H124.695H124.201H123.711H123.224H122.74H122.261H121.785H121.313H120.844H120.379H119.918H119.46H119.007H118.557H118.111H117.668H117.23H116.795C108.667 302 103.329 299.543 99.7207 295.66C95.9794 291.634 93.5288 285.465 92.5199 277.043C90.49 260.096 94.5506 236.309 101.912 209.957C114.301 165.61 135.421 116.016 149.156 83.7635C151.681 77.8339 153.956 72.4906 155.882 67.8738C167.524 39.9627 187.139 27.9383 203.84 22.7605C212.255 20.1519 219.962 19.2787 225.561 19.0608C228.355 18.952 230.607 19.0071 232.138 19.0867C232.903 19.1264 233.486 19.1722 233.866 19.2064C234.055 19.2236 234.193 19.2378 234.278 19.2469C234.32 19.2514 234.348 19.2547 234.363 19.2564L234.365 19.2566L234.37 19.2572Z" fill="#D9D9D9" stroke="black" stroke-width="10"/>
<path d="M96.6884 10.1321C99.368 7.45748 103.136 5.90549 108.018 5.29635C112.932 4.6832 118.607 5.07512 124.617 5.97508C129.54 6.71216 134.448 7.74829 139.185 8.74828C140.231 8.96929 141.27 9.18854 142.298 9.4024C147.768 10.5397 153.238 11.5933 157.559 11.5933C161.765 11.5933 166.174 10.8984 170.389 10.1192C171.679 9.88075 172.944 9.6361 174.194 9.39428C177.176 8.81739 180.075 8.25665 183.036 7.83451C191.398 6.64216 198.489 6.86911 204.33 10.7559C207.236 12.6897 208.839 14.8436 209.549 17.4763C210.301 20.2621 210.214 24.1899 208.505 29.879C205.045 41.3899 195.579 58.1127 178.236 82.8421C161.022 107.388 146.527 122.951 135.4 131.135C129.814 135.243 125.421 137.234 122.22 137.815C119.22 138.36 117.589 137.651 116.505 136.569C116.297 136.361 116.112 136.173 115.948 136.002C116.209 135.622 116.483 135.188 116.747 134.7C119.73 129.206 120.187 119.874 112.73 98.8748C111.674 95.901 110.623 92.9616 109.585 90.061C103.252 72.3592 97.4369 56.1064 94.317 42.3337C92.5072 34.3441 91.6931 27.5396 92.1045 22.0179C92.5124 16.5441 94.087 12.7288 96.6884 10.1321Z" fill="#D9D9D9" stroke="black" stroke-width="10"/>
<path d="M545.312 12.1321C542.632 9.45748 538.864 7.90549 533.982 7.29635C529.068 6.6832 523.393 7.07512 517.383 7.97508C512.46 8.71216 507.552 9.74829 502.815 10.7483C501.769 10.9693 500.73 11.1885 499.702 11.4024C494.232 12.5397 488.762 13.5933 484.441 13.5933C480.235 13.5933 475.826 12.8984 471.611 12.1192C470.321 11.8808 469.056 11.6361 467.806 11.3943C464.824 10.8174 461.925 10.2566 458.964 9.83451C450.602 8.64216 443.511 8.86911 437.67 12.7559C434.764 14.6897 433.161 16.8436 432.451 19.4763C431.699 22.2621 431.786 26.1899 433.495 31.879C436.955 43.3899 446.421 60.1127 463.764 84.8421C480.978 109.388 495.473 124.951 506.6 133.135C512.186 137.243 516.579 139.234 519.78 139.815C522.78 140.36 524.411 139.651 525.495 138.569C525.703 138.361 525.888 138.173 526.052 138.002C525.791 137.622 525.517 137.188 525.253 136.7C522.27 131.206 521.813 121.874 529.27 100.875C530.326 97.901 531.377 94.9616 532.415 92.061C538.748 74.3592 544.563 58.1064 547.683 44.3337C549.493 36.3441 550.307 29.5396 549.895 24.0179C549.488 18.5441 547.913 14.7288 545.312 12.1321Z" fill="#D9D9D9" stroke="black" stroke-width="10"/>
<circle cx="235.5" cy="105.5" r="24.5" fill="black"/>
<circle cx="402.5" cy="105.5" r="24.5" fill="black"/>
<path d="M211 198.842C211 198.842 240.455 228.526 269.909 208.737C299.364 188.947 319 184 319 184C319 184 348.455 188.947 363.182 208.737C377.909 228.526 427 198.842 427 198.842C427 198.842 417.182 228.526 407.364 228.526C397.545 228.526 412.273 243.368 402.455 258.211C392.636 273.053 373 278 373 278H319H265C265 278 245.364 273.053 235.545 258.211C225.727 243.368 240.455 223.579 230.636 223.579C220.818 223.579 211 198.842 211 198.842Z" fill="black"/>
<path d="M279.538 243H276.989L275.491 245.064L279.538 248C275.491 245.064 275.49 245.066 275.489 245.068L275.485 245.073L275.475 245.086L275.445 245.129C275.42 245.163 275.386 245.211 275.343 245.272C275.257 245.394 275.136 245.567 274.983 245.789C274.678 246.233 274.246 246.875 273.717 247.697C272.659 249.338 271.209 251.702 269.602 254.642C266.398 260.503 262.519 268.751 259.92 278.198C254.722 297.086 254.49 321.69 276.241 340.77L276.543 341.035L276.884 341.248L279.538 337.011C276.884 341.248 276.886 341.249 276.888 341.251L276.893 341.254L276.906 341.262L276.943 341.285C276.972 341.303 277.011 341.327 277.059 341.356C277.156 341.415 277.291 341.496 277.463 341.596C277.806 341.797 278.297 342.078 278.925 342.419C280.181 343.101 281.992 344.028 284.278 345.052C288.844 347.095 295.355 349.543 303.18 351.177C318.851 354.45 339.993 354.483 361.116 341.248C383.829 327.017 383.145 301.577 378.102 281.987C375.527 271.985 371.686 262.856 368.517 256.265C366.927 252.958 365.494 250.263 364.452 248.385C363.931 247.445 363.507 246.709 363.209 246.2C363.06 245.946 362.943 245.749 362.861 245.612C362.819 245.543 362.787 245.49 362.764 245.452L362.736 245.406L362.728 245.392L362.725 245.388C362.724 245.386 362.723 245.384 358.462 248L362.723 245.384L361.259 243H358.462H279.538Z" fill="#F77171" stroke="black" stroke-width="10"/>
<path d="M288.641 117.347C313.107 107.551 322.893 107.551 347.359 117.347C371.824 127.143 337.572 161.429 327.786 166.327C318 171.224 318 171.224 308.214 166.327C298.427 161.429 264.176 127.143 288.641 117.347Z" fill="black"/>
<path d="M314.551 159H324.449C324.449 159 319.5 184.185 329.398 189.222C339.295 194.259 299.705 194.259 309.602 189.222C319.5 184.185 314.551 159 314.551 159Z" fill="black"/>
<path d="M68.9554 343.646C70.3503 342.29 71.5933 340.978 72.6525 339.802C73.4361 340.596 74.3275 341.421 75.3221 342.224C79.6853 345.748 86.6108 349.26 95.1393 346.895C103.668 344.53 107.795 337.952 109.72 332.685C110.287 331.136 110.687 329.644 110.971 328.311C112.869 328.588 115.178 328.88 117.722 329.108C124.39 329.707 133.272 329.931 140.554 327.912C143.846 326.999 146.142 324.534 147.692 322.08C149.284 319.56 150.484 316.441 151.378 313.108C153.172 306.418 153.963 297.993 153.659 289.503C153.354 281.012 151.943 272.126 149.107 264.56C146.317 257.114 141.84 250.159 134.87 246.813C131.401 245.147 127.035 244.342 122.386 244.036C117.663 243.725 112.274 243.91 106.529 244.472C95.0358 245.597 81.7387 248.271 68.7845 251.863C55.8304 255.456 43.0553 260.012 32.6247 264.967C27.4109 267.444 22.6961 270.062 18.8075 272.761C14.9806 275.417 11.653 278.356 9.53722 281.57C5.2075 288.147 5.28184 296.633 7.07548 304.566C8.90534 312.66 12.7407 321.193 17.3032 328.809C21.868 336.429 27.3315 343.414 32.6329 348.345C35.273 350.8 38.0312 352.894 40.761 354.262C43.3855 355.578 46.697 356.575 50.0295 355.651C57.6437 353.539 64.3834 348.09 68.9554 343.646Z" fill="#D9D9D9" stroke="black" stroke-width="10"/>
<path d="M578.045 343.646C576.65 342.29 575.407 340.978 574.348 339.802C573.564 340.596 572.672 341.421 571.678 342.224C567.315 345.748 560.389 349.26 551.861 346.895C543.332 344.53 539.205 337.952 537.28 332.685C536.713 331.136 536.313 329.644 536.029 328.311C534.131 328.588 531.822 328.88 529.278 329.108C522.61 329.707 513.728 329.931 506.446 327.912C503.154 326.999 500.858 324.534 499.308 322.08C497.716 319.56 496.516 316.441 495.622 313.108C493.828 306.418 493.037 297.993 493.341 289.503C493.646 281.012 495.057 272.126 497.893 264.56C500.683 257.114 505.16 250.159 512.13 246.813C515.599 245.147 519.965 244.342 524.614 244.036C529.337 243.725 534.726 243.91 540.471 244.472C551.964 245.597 565.261 248.271 578.215 251.863C591.17 255.456 603.945 260.012 614.375 264.967C619.589 267.444 624.304 270.062 628.193 272.761C632.019 275.417 635.347 278.356 637.463 281.57C641.792 288.147 641.718 296.633 639.925 304.566C638.095 312.66 634.259 321.193 629.697 328.809C625.132 336.429 619.669 343.414 614.367 348.345C611.727 350.8 608.969 352.894 606.239 354.262C603.615 355.578 600.303 356.575 596.97 355.651C589.356 353.539 582.617 348.09 578.045 343.646Z" fill="#D9D9D9" stroke="black" stroke-width="10"/>
</svg>
