<?xml version="1.0" standalone="no"?>
<!DOCTYPE svg PUBLIC "-//W3C//DTD SVG 20010904//EN"
 "http://www.w3.org/TR/2001/REC-SVG-20010904/DTD/svg10.dtd">
<svg version="1.0" xmlns="http://www.w3.org/2000/svg"
 width="1072.000000pt" height="1072.000000pt" viewBox="0 0 1072.000000 1072.000000"
 preserveAspectRatio="xMidYMid meet">
<metadata>
Created by potrace 1.14, written by Peter Selinger 2001-2017
</metadata>
<g transform="translate(0.000000,1072.000000) scale(0.100000,-0.100000)"
fill="#000000" stroke="none">
<path d="M1847 8264 c-2 -3 -22 -6 -43 -9 -51 -5 -143 -44 -180 -75 -26 -22
-101 -121 -96 -127 1 -2 0 -8 -2 -15 -19 -63 -25 -119 -21 -213 2 -60 7 -121
10 -135 3 -14 8 -41 11 -60 4 -34 15 -81 34 -150 19 -72 72 -246 79 -265 12
-29 62 -178 66 -195 2 -8 4 -16 5 -17 2 -2 3 -6 5 -10 1 -5 4 -15 8 -23 3 -8
25 -69 48 -135 23 -66 47 -133 55 -150 7 -16 10 -33 8 -37 -3 -4 0 -8 5 -8 6
0 11 -6 11 -13 0 -8 9 -43 21 -78 12 -35 22 -71 24 -79 2 -8 8 -33 14 -55 23
-86 31 -199 19 -250 -7 -26 -20 -59 -27 -65 -3 -3 -12 -16 -20 -29 -13 -24
-11 -27 33 -68 26 -24 51 -44 57 -44 5 -1 13 -2 18 -3 5 0 12 -4 16 -8 4 -4
13 -4 21 -1 18 7 18 -6 -2 -53 -9 -22 -16 -40 -15 -42 1 -1 -5 -15 -13 -30
-11 -22 -71 -183 -80 -217 -2 -5 -7 -21 -13 -35 -6 -14 -25 -68 -42 -120 -18
-52 -35 -102 -38 -110 -4 -8 -7 -18 -8 -22 -2 -5 -3 -9 -5 -10 -1 -2 -3 -10
-5 -18 -2 -8 -23 -73 -45 -145 -23 -71 -57 -186 -76 -255 -33 -116 -39 -140
-49 -180 -2 -8 -4 -15 -5 -15 -2 0 -4 -9 -13 -55 -3 -14 -13 -59 -22 -100 -24
-107 -23 -104 -30 -154 -6 -36 -12 -47 -29 -51 -39 -9 -121 -27 -146 -32 -41
-8 -44 -9 -65 -16 -11 -3 -33 -9 -50 -12 -34 -7 -33 -7 -95 -25 -25 -7 -51
-15 -59 -16 -42 -8 -306 -101 -343 -120 -15 -8 -29 -14 -30 -14 -10 3 -89 -32
-189 -81 -247 -124 -371 -234 -419 -374 -10 -30 -16 -55 -13 -55 3 0 1 -6 -4
-12 -16 -20 -7 -206 12 -278 9 -36 18 -69 20 -75 10 -44 59 -161 101 -242 49
-96 172 -283 185 -283 5 0 9 -5 9 -10 0 -19 103 -125 185 -190 96 -77 194
-105 288 -84 97 23 225 99 325 193 l34 31 28 -20 c32 -23 108 -58 143 -67 89
-21 215 -3 304 44 39 21 133 109 133 124 0 4 6 14 14 21 7 8 22 35 34 60 l20
47 49 -5 c63 -7 218 -7 268 0 112 14 195 39 195 57 0 5 5 9 11 9 31 0 132 163
145 234 3 16 7 33 9 37 3 4 7 24 11 45 3 22 9 42 12 46 6 6 43 9 105 8 26 -1
65 0 82 0 32 1 52 1 100 1 28 -1 73 0 102 0 28 1 56 -2 62 -5 5 -4 12 -2 15 3
4 6 18 6 35 1 15 -4 34 -4 41 0 7 4 26 4 41 0 16 -5 31 -5 34 0 3 5 18 5 33 1
15 -5 36 -5 47 -1 11 4 32 4 47 -1 15 -4 30 -4 33 1 3 5 18 5 33 1 15 -4 38
-5 52 -1 14 4 37 3 52 -1 15 -4 30 -4 33 1 3 5 18 5 33 2 15 -4 41 -6 57 -5
60 6 124 5 134 -2 6 -3 11 -1 11 5 0 6 5 8 11 5 6 -4 33 -7 60 -6 27 1 71 1
98 2 27 1 54 -2 60 -5 5 -4 12 -2 16 3 3 6 12 8 20 5 8 -4 34 -7 57 -8 l42 -1
13 -60 c16 -72 14 -66 38 -135 10 -30 22 -58 27 -61 5 -3 10 -10 10 -15 1 -18
12 -40 51 -103 80 -127 185 -228 293 -280 67 -33 272 -111 289 -110 13 0 81
-14 90 -19 5 -3 16 -7 25 -8 8 -1 47 -5 85 -10 171 -20 376 -7 512 32 29 9 58
17 65 18 7 2 22 7 33 11 114 45 172 71 220 100 32 19 60 35 62 35 12 0 183
156 183 166 0 3 8 13 18 24 37 40 121 231 127 290 6 52 17 115 21 122 3 5 20
8 37 8 18 0 55 0 84 1 28 1 56 -2 62 -6 6 -3 11 -1 11 5 0 6 5 8 11 5 13 -9
107 -10 115 -2 3 3 18 1 34 -3 16 -4 31 -6 34 -2 8 7 102 5 116 -3 5 -3 10 -1
10 5 0 6 5 8 11 5 6 -4 34 -7 62 -6 29 1 63 1 77 0 14 0 32 0 40 0 63 4 110 2
119 -4 6 -3 11 -1 11 5 0 6 5 8 11 5 13 -9 107 -10 115 -2 3 3 18 1 34 -3 16
-4 31 -6 34 -2 8 7 102 5 116 -3 5 -3 10 -1 10 5 0 6 5 8 11 5 10 -7 74 -8
134 -2 17 1 42 -1 57 -5 15 -3 30 -3 33 2 3 5 18 5 33 1 15 -5 36 -5 47 -1 11
4 32 4 47 -1 16 -4 30 -3 34 2 3 5 10 6 16 3 6 -4 35 -6 64 -5 37 1 54 -3 55
-12 0 -6 2 -19 4 -27 2 -8 6 -30 9 -48 9 -48 54 -164 71 -182 8 -9 15 -21 15
-26 0 -15 71 -80 105 -97 85 -42 279 -61 440 -43 l50 6 27 -58 c43 -94 104
-157 193 -202 134 -67 284 -60 414 20 l45 29 41 -37 c68 -61 88 -77 151 -115
136 -84 238 -99 347 -50 228 102 506 489 599 834 17 65 22 110 22 199 -1 134
-5 155 -45 230 -36 68 -151 190 -178 190 -6 0 -11 4 -11 9 0 5 -9 13 -20 16
-11 3 -26 12 -33 18 -30 28 -220 122 -342 170 -49 20 -103 41 -120 48 -16 7
-36 13 -42 15 -7 1 -32 9 -55 17 -82 30 -259 82 -308 92 -8 2 -42 10 -75 18
-57 15 -102 25 -135 31 -129 23 -130 24 -130 52 0 37 -76 350 -121 498 -45
146 -115 360 -129 391 -5 11 -16 40 -24 65 -8 25 -24 70 -36 100 -42 109 -48
126 -60 160 -7 19 -17 39 -21 45 -5 5 -9 15 -9 22 0 7 -9 35 -21 61 -12 26
-25 56 -29 67 -59 137 -58 133 -20 140 29 6 68 31 104 68 28 29 28 31 12 56
-53 81 -63 178 -32 308 22 98 72 254 107 338 6 17 13 37 15 45 2 8 21 62 42
120 32 86 130 382 171 515 12 38 36 138 57 235 21 100 26 295 9 360 -46 173
-166 258 -380 271 -23 2 -208 -12 -214 -15 -3 -2 -26 -7 -51 -10 -56 -8 -93
-14 -150 -27 -25 -6 -55 -13 -67 -15 -13 -2 -35 -6 -50 -10 -16 -3 -41 -7 -58
-10 -16 -3 -49 -9 -72 -14 -44 -8 -162 -5 -223 5 -38 6 -37 6 -165 30 -127 24
-161 27 -235 26 -93 -1 -101 -2 -145 -14 -22 -6 -42 -11 -45 -11 -3 -1 -31
-16 -62 -33 -64 -37 -104 -81 -129 -145 -20 -50 -19 -49 -134 -18 -44 12 -89
23 -100 25 -11 1 -27 5 -35 8 -68 27 -211 27 -410 1 -19 -2 -60 -6 -90 -8 -70
-6 -164 -15 -215 -21 -22 -2 -71 -7 -110 -10 -38 -4 -88 -8 -110 -11 -22 -2
-76 -6 -120 -9 -44 -3 -91 -7 -105 -10 -90 -18 -422 -24 -565 -12 -44 4 -114
10 -155 12 -41 3 -91 8 -110 11 -19 3 -62 7 -95 10 -33 2 -82 6 -110 9 -27 2
-81 7 -120 10 -38 3 -86 8 -105 11 -37 5 -97 11 -190 19 -125 10 -177 16 -205
23 -58 14 -325 5 -386 -14 -12 -3 -24 7 -40 33 -48 81 -147 144 -257 165 -52
9 -252 5 -271 -6 -4 -3 -30 -8 -57 -11 -27 -4 -65 -10 -84 -15 -101 -25 -254
-33 -340 -18 -30 5 -64 10 -75 12 -11 2 -33 6 -50 10 -59 13 -82 17 -215 42
-74 13 -142 24 -150 23 -8 -1 -17 0 -20 1 -10 4 -179 8 -183 4z"/>
</g>
</svg>
